<?xml version="1.0" standalone="no"?>
<!DOCTYPE svg PUBLIC "-//W3C//DTD SVG 20010904//EN"
 "http://www.w3.org/TR/2001/REC-SVG-20010904/DTD/svg10.dtd">
<svg version="1.0" xmlns="http://www.w3.org/2000/svg"
 width="512.000000pt" height="512.000000pt" viewBox="0 0 512.000000 512.000000"
 preserveAspectRatio="xMidYMid meet">
<metadata>
Created by potrace 1.11, written by Peter Selinger 2001-2013
</metadata>
<g transform="translate(0.000000,512.000000) scale(0.100000,-0.100000)"
fill="#000000" stroke="none">
<path d="M2408 5115 c-2 -1 -43 -6 -92 -9 -49 -4 -92 -9 -95 -10 -3 -2 -29 -6
-58 -10 -138 -16 -412 -92 -568 -156 -185 -76 -429 -217 -592 -340 -116 -88
-324 -284 -369 -349 -15 -20 -14 -21 18 -21 18 -1 62 -3 98 -5 36 -2 117 -7
180 -10 273 -15 429 -25 470 -30 19 -2 71 -7 115 -10 298 -21 349 -32 432 -97
166 -127 523 -614 914 -1245 52 -84 98 -151 103 -150 32 10 49 224 32 378 -7
60 -6 69 13 88 12 12 29 21 39 22 9 0 26 2 37 4 86 16 467 24 607 12 150 -12
231 -85 273 -243 30 -114 20 -314 -18 -350 -12 -11 -147 -69 -300 -129 -153
-60 -276 -112 -275 -116 2 -4 44 -40 93 -79 139 -111 262 -227 290 -274 28
-49 53 -155 63 -276 14 -167 7 -735 -13 -1045 -1 -22 -6 -94 -9 -160 -4 -66
-9 -135 -11 -152 -2 -18 0 -33 6 -33 26 0 284 175 409 276 58 48 209 197 274
270 104 118 119 138 205 265 247 365 391 772 428 1209 14 158 8 434 -12 570
-26 173 -83 398 -141 555 -78 209 -247 505 -394 690 -162 203 -441 449 -666
587 -179 110 -434 224 -599 269 -16 4 -55 15 -85 23 -30 9 -68 19 -85 22 -16
3 -48 9 -70 14 -22 5 -60 11 -85 15 -25 3 -56 8 -70 10 -81 13 -154 17 -312
20 -98 1 -179 1 -180 0z"/>
<path d="M405 3939 c-183 -286 -331 -675 -371 -974 -3 -27 -8 -58 -10 -69 -3
-16 -8 -70 -19 -193 -2 -18 0 -33 4 -34 3 -1 64 -2 136 -4 72 -1 285 -6 475
-10 190 -4 397 -8 460 -10 63 -2 221 -6 350 -9 284 -8 467 -14 660 -20 80 -3
226 -8 325 -11 99 -4 206 -7 237 -9 32 -1 62 0 67 3 10 7 -81 154 -293 476
-297 449 -536 761 -626 818 -24 14 -75 25 -165 32 -173 15 -379 30 -550 40
-49 3 -130 7 -180 10 -49 3 -129 8 -176 10 -48 2 -131 7 -185 10 l-99 5 -40
-61z"/>
<path d="M3398 3054 c-2 -1 -61 -4 -133 -7 -71 -4 -131 -6 -132 -7 -1 0 -1
-46 1 -102 4 -128 -14 -247 -45 -313 -13 -27 -25 -53 -27 -56 -2 -4 34 -33 80
-65 46 -32 85 -61 88 -65 3 -4 57 13 120 38 148 58 137 54 330 132 l165 66 5
45 c8 76 -6 187 -32 238 -28 56 -60 80 -113 87 -41 6 -303 14 -307 9z"/>
<path d="M6 2531 c-5 -8 1 -155 8 -221 10 -89 16 -133 21 -160 2 -14 7 -41 10
-60 33 -203 134 -493 248 -715 46 -89 135 -234 146 -236 21 -5 99 -7 377 -13
344 -8 345 -7 451 55 52 31 154 127 274 256 38 42 61 56 140 86 86 33 309 100
369 111 14 2 67 14 119 25 51 12 96 20 98 17 2 -2 -20 -9 -49 -16 -93 -22
-431 -136 -503 -171 -100 -47 -120 -63 -167 -132 -55 -81 -189 -215 -258 -259
-114 -72 -166 -80 -600 -93 -74 -2 -139 -4 -143 -5 -5 0 -7 -4 -5 -9 13 -36
297 -330 387 -401 24 -19 58 -47 75 -61 52 -43 256 -174 346 -223 226 -121
530 -227 744 -260 21 -4 41 -8 45 -10 3 -2 37 -7 74 -11 37 -3 78 -9 90 -11
39 -9 379 -11 462 -4 86 8 175 19 209 26 12 2 48 9 81 15 87 15 237 56 335 91
47 16 100 34 118 39 17 6 33 15 33 22 1 7 3 21 4 32 1 11 6 67 9 125 4 58 9
128 11 155 4 50 12 195 21 355 9 164 11 757 2 836 -12 112 -9 107 -70 85 -29
-11 -303 -101 -608 -201 -305 -100 -677 -222 -825 -271 l-270 -89 -70 -62
c-119 -108 -190 -226 -137 -229 9 0 26 -2 37 -5 24 -5 320 -5 385 1 25 2 83 6
130 10 142 11 333 31 379 40 9 1 43 6 76 10 33 3 109 15 169 26 60 11 110 18
112 16 6 -6 -157 -43 -307 -71 -132 -25 -150 -28 -239 -41 -25 -4 -52 -9 -61
-10 -14 -3 -44 -7 -149 -20 -14 -2 -54 -7 -90 -10 -36 -4 -74 -9 -85 -11 -59
-12 -334 -15 -370 -5 -59 16 -85 44 -85 92 0 69 48 145 179 282 74 77 72 76
301 162 69 26 139 53 155 60 17 7 66 26 110 43 44 16 217 83 385 148 168 65
330 127 362 138 174 64 448 172 448 177 0 13 -303 248 -490 379 -58 40 -114
82 -125 92 -22 18 -67 22 -430 33 -82 2 -226 7 -320 10 -93 3 -242 7 -330 10
-88 2 -243 7 -345 10 -196 6 -329 10 -850 20 -528 11 -551 11 -554 6z m3422
-898 c41 -55 -37 -196 -193 -347 -112 -109 -194 -151 -335 -171 -40 -5 -86
-13 -116 -20 -23 -5 -209 -33 -269 -41 -22 -2 -51 -7 -65 -9 -14 -2 -47 -7
-75 -10 -27 -3 -84 -10 -125 -15 -41 -5 -104 -12 -140 -15 -36 -3 -74 -8 -85
-10 -53 -10 -261 -15 -274 -6 -19 12 -8 36 39 87 102 111 154 137 525 262 259
88 795 254 894 278 9 2 48 12 86 22 77 21 114 20 133 -5z m-478 -587 c0 -2 -9
-6 -20 -9 -11 -3 -20 -1 -20 4 0 5 9 9 20 9 11 0 20 -2 20 -4z"/>
</g>
</svg>
