<svg xmlns="http://www.w3.org/2000/svg" viewBox="0 0 656.96 657"><defs><style>.a{fill:#ed2024;}</style></defs><title>logo</title><path class="a" d="M666.22,426.3c0-181.43-147.07-328.5-328.5-328.5A327.75,327.75,0,0,0,88.31,212.51c68.77,3.59,140.21,8.07,156.26,11.85,8,1.89,24.72,5.82,91.06,104.61,23,34.25,44.14,68.3,53.92,84.23,6.25-11.73,6-37.49,3.33-54.66a8.58,8.58,0,0,1,7.56-9.87c1.14-.11,28.06-3,56.77-3,11.12,0,21.1.44,29.62,1.31a33.15,33.15,0,0,1,23.87,13.24c15,20,9.07,55,8.35,58.94a8.59,8.59,0,0,1-5.29,6.41L441,454.35c19.1,14.62,38.44,30.49,47.67,41.41,5.61,6.65,16.08,19,10.91,140.68-1.23,28.85-3.08,57.17-4.62,78.32C597,659,666.22,550.75,666.22,426.3Z" transform="translate(-9.26 -97.8)"/><path class="a" d="M468,523.17L242.85,597c-3.76,3.07-7.54,6.39-11.12,9.76a144.62,144.62,0,0,0-11,11.48c-3.28,3.92-6.47,8.32-7.64,12a6.17,6.17,0,0,0-.32,2,1,1,0,0,0,.22.71,2.5,2.5,0,0,0,.55.46,1.1,1.1,0,0,1,.29.18,6.9,6.9,0,0,0,.87.37l0.45,0.14,0.79,0.22,1.72,0.36a113.83,113.83,0,0,0,15.8,1.21c5.42,0.1,10.9,0,16.38-.12,11-.3,22-1,33-1.79q33-2.54,65.82-7.23c10.94-1.58,21.85-3.35,32.67-5.52,5.42-1.07,10.82-2.26,16.17-3.63a113,113,0,0,0,15.76-5.08,110,110,0,0,1-15.52,5.87c-5.31,1.64-10.65,3.1-16,4.46-10.76,2.71-21.6,5-32.49,7.16q-32.66,6.36-65.71,10.55c-11,1.38-22.07,2.59-33.2,3.47-5.58.43-11.15,0.77-16.78,0.94a114.2,114.2,0,0,1-17.33-.49,28,28,0,0,1-5.12-1.07l-1.07-.39a13.57,13.57,0,0,1-1.56-.75,12.47,12.47,0,0,1-2.75-2,11.53,11.53,0,0,1-3.34-6.61,16,16,0,0,1,.39-6.17c2-7,5.52-11.72,9-16.48A153.6,153.6,0,0,1,223,598c4-4.14,8-8,12.33-11.93a5.4,5.4,0,0,1,1.66-1l0.36-.14L452.46,502.2c-22.78-20-62.18-48.21-78.56-59.5a15,15,0,0,1-3.41-3.42c-48.56-1.75-224.92-7.93-361.24-9.55A326.89,326.89,0,0,0,64.73,609.07l9.47,0.39,35.48,1.16c6.12,0.22,11.95.27,17.93,0.38s11.9,0.44,18.13.08l4.62-.17,2.3-.09,1.15,0H154l0.3-.07a35.31,35.31,0,0,0,7.46-2.33,80.68,80.68,0,0,0,14.8-8.53,114.71,114.71,0,0,0,24.5-23.44c1.71-2,2.71-4.65,5.62-7.45a34.75,34.75,0,0,1,7.76-5.23,118.21,118.21,0,0,1,15.42-6.53c10.11-3.57,19.79-6.28,28.75-8.63,17.93-4.64,33-7.77,43.57-9.94s16.64-3.19,16.64-3.19-6,1.46-16.38,4.28-25.21,6.94-42.68,12.72c-8.74,2.91-18.14,6.19-27.73,10.31A115.79,115.79,0,0,0,218,569.83a28.33,28.33,0,0,0-5.88,4.5c-1.22,1.14-2.43,4-4.18,6.56A122.8,122.8,0,0,1,183,608.17a89.75,89.75,0,0,1-16.21,10.75,46.11,46.11,0,0,1-9.85,3.79l-0.67.17-0.16.05-0.62.09-0.29,0-1.15.11-2.28.24-4.59.46c-6.05.75-12.48,0.83-18.73,1.22s-12.65.65-18.65,0.83c-10.92.34-21.68,0.68-32.16,1C137.68,704.7,231.84,754.8,337.72,754.8a327.47,327.47,0,0,0,126.08-25.08C470.68,645.37,473.63,553.48,468,523.17Zm-62,82.42c-15.06,8.5-159.84,26.69-171.16,23.56s20.72-27.32,20.72-27.32c21.37-11.31,183.26-61.77,189.41-59.67C467.86,550,421.06,597.1,406,605.59Z" transform="translate(-9.26 -97.8)"/><path class="a" d="M237.4,253.49c-14.91-3.32-91.22-8-171.24-12.07A326.74,326.74,0,0,0,9.52,412.57c127.38,1.51,289.47,7,350.11,9.15C311.34,343.11,253.8,260.54,237.4,253.49Z" transform="translate(-9.26 -97.8)"/><path class="a" d="M497,370.53a15.77,15.77,0,0,0-11.86-6.44c-7.94-.81-17.35-1.22-27.9-1.22-18.21,0-36,1.22-46.23,2.06,1.63,15.77,2.61,44.77-9.12,60.7,6.13,4.34,14.22,10.12,23,16.65l78-30.8C504.16,400.6,504.65,380.75,497,370.53Z" transform="translate(-9.26 -97.8)"/></svg>